<svg width="1000" height="360" viewBox="0 0 1000 360" fill="none" xmlns="http://www.w3.org/2000/svg">
  <rect width="1000" height="360" rx="32" fill="#08080a"/>
  <rect x="0.5" y="0.5" width="999" height="359" rx="31.5" stroke="#232329"/>
  <circle cx="500" cy="150" r="260" fill="url(#glow)"/>

  <g transform="translate(140,88) scale(0.3953)">
    <path d="M111.907 18.8074C170.224 16.2371 231.447 20.8059 289.987 18.8027C343.389 16.9753 388.501 54.0767 390.43 108.554C391.574 140.835 391.758 176.992 390.853 209.381C390.015 239.418 394.311 286.966 388.448 314.919C385.161 330.491 377.915 344.953 367.409 356.907C350.16 376.531 327.954 386.294 302.148 387.917C245.45 389.783 187.273 386.986 130.454 388.169C102.238 388.757 79.1233 385.432 56.5913 367.113C37.6033 351.616 25.5763 329.19 23.1713 304.8C21.1073 284.319 22.4093 239.835 22.3623 217.284L22.2263 147.104C22.2293 131.362 21.6663 110.275 24.4923 95.2167C27.3893 79.6877 34.0993 65.1227 44.0193 52.8297C61.8043 31.1578 84.5633 21.4675 111.907 18.8074Z" fill="url(#paint0_linear_157_2)"/>
    <path d="M143.402 115.608C161.128 114.112 187.273 115.501 205.308 115.205C217.517 115.004 266.997 113.716 275.667 117.825C283.8 121.597 290.093 128.458 293.149 136.887C296.894 147.485 294.639 242.501 294.72 260.467C294.734 263.667 293.464 270.412 291.849 273.504C286.983 282.814 280.144 287.474 270.515 290.825C255.599 293.234 237.59 291.449 222.345 291.473C198.93 291.51 174.549 292.903 151.232 291.21C146.175 290.843 140.353 290.166 135.794 287.895C128.658 284.339 122.864 276.987 120.321 269.535C116.763 259.111 117.42 162.354 118.753 146.511C119.146 141.836 119.793 137.312 121.916 133.062C126.447 123.992 133.982 118.772 143.402 115.608Z" fill="#FEFEFE"/>
    <path d="M189.325 183.865L279.29 183.88C279.163 208.867 280.522 238.686 278.688 263.66C278.541 265.673 276.072 269.467 274.889 271.235C265.965 278.655 244.98 276.286 233.501 276.199L189.167 276.171C188.996 245.402 189.048 214.633 189.325 183.865Z" fill="#6D61E4"/>
    <path d="M146.166 130.528C181.61 129.169 218.337 131.276 253.864 130.361C283.298 129.603 279.727 145.215 279.241 168.286L269.448 168.379L134.019 168.439C133.806 152.089 130.024 139.022 146.166 130.528Z" fill="#6D61E4"/>
    <path d="M134.185 183.885L173.527 183.828C174.441 213.468 173.797 246.225 173.821 276.099C131.869 275.48 133.747 276.398 133.884 232.492L134.185 183.885Z" fill="#6D61E4"/>
    <path d="M1668.76 156.166L1707.42 156.158C1716.12 190.155 1725.32 224.021 1735.03 257.744L1759.89 156.178L1799.79 156.177L1773.41 248.856C1769.48 262.867 1762.25 291.051 1757.33 303.802L1716 303.866C1706.88 270.971 1697.6 238.123 1688.14 205.325C1678.76 231.408 1667.65 276.453 1660.03 303.793L1618.31 303.978C1609.2 270.799 1599.85 237.687 1590.26 204.644C1586.04 189.959 1581.03 170.193 1576.31 156.193L1616.41 156.179L1629.98 212.509C1631.84 220.205 1635.32 232.667 1636.55 239.936C1638.03 245.973 1639.56 251.294 1641.37 257.239C1643.67 250.22 1645.1 244.414 1646.8 237.213C1653.06 219.401 1664.33 175.33 1668.76 156.166Z" fill="#FEFEFE"/>
    <path d="M785.921 101.668C831.06 97.6679 867.998 111.632 874.338 161.209C861.648 161.344 848.732 161.22 836.02 161.222C833.83 153.125 832.128 148.227 825.533 142.653C811.923 131.15 783.39 130.164 771.393 144.476C768.017 148.504 764.955 156.04 766.182 161.371C771.513 183.064 808.894 186.711 830.355 192.05C873.498 202.785 889.868 244.41 864.808 281.208C852.897 298.687 827.958 304.321 806.182 306.314C760.147 306.784 724.577 291.953 719.869 241.452L759.583 241.398C759.759 242.761 759.96 244.12 760.188 245.475C761.508 253.653 766.057 260.959 772.815 265.752C786.784 275.58 823.96 276.046 832.747 259.123C850.521 225.053 797.052 219.24 774.249 213.541C732.398 203.081 711.155 167.91 734.868 128.935C744.732 112.721 767.274 104.754 785.921 101.668Z" fill="#FEFEFE"/>
    <path d="M600.713 101.685C652.18 97.8127 691.189 119.218 698.124 173.352L657.636 173.366C655.328 163.668 649.137 148.846 640.926 144.579C581.902 113.901 553.577 175.06 563.516 223.603C570.546 257.938 590.518 273.571 623.71 269.382C636.069 267.822 645.616 259.351 652.239 249.6C654.604 245.079 656.194 239.821 657.825 234.96L697.81 235.094C688.388 302.594 611.618 325.951 559.056 289.622C513.72 258.287 510.062 178.112 540.886 135.943C555.493 115.96 576.398 105.337 600.713 101.685Z" fill="#FEFEFE"/>
    <path d="M1147.49 104.2L1191 104.163C1207.24 155.21 1222.8 208.72 1240.18 259.119C1257.19 211.716 1274.04 152.993 1288.94 104.213L1332.07 104.207C1327.99 114.976 1323.94 128.433 1320.32 139.554L1264.94 303.754L1214.98 303.856C1211.27 288.727 1198.07 253.076 1192.68 237.122L1147.49 104.2Z" fill="#FEFEFE"/>
    <path d="M890.898 104.247L934.278 104.22C935.898 110.695 937.808 117.106 939.898 123.445C954.758 168.53 967.529 214.626 983.089 259.441C988.639 244.381 994.708 223.055 999.668 207.299L1031.7 104.276L1074.44 104.228C1070.87 112.745 1066.39 128.294 1063.33 137.685C1045.17 192.366 1026.78 249.665 1007.41 303.738L958.188 303.704L890.898 104.247Z" fill="#FEFEFE"/>
    <path d="M1492.6 153.871L1493.13 153.875C1546.88 154.62 1563.77 190.822 1563 239.234L1459.25 239.326C1459.75 243.205 1460.37 248.25 1461.47 251.928C1464.11 260.717 1470.13 268.1 1478.21 272.458C1496.48 282.212 1516.71 276.446 1526.39 257.987L1557.09 261.728C1559.21 261.976 1559.82 261.955 1561.47 263.27C1562.18 268.491 1553.47 281.118 1549.96 285.131C1537.09 299.674 1520.59 304.695 1502.05 306.135C1458.11 310.047 1422.89 282.868 1421.06 237.591C1419.07 188.463 1442.8 156.569 1492.6 153.871ZM1459.69 214.513L1496 214.497L1525.92 214.563C1521.44 194.595 1514.08 181.759 1490.97 182.707C1470.8 185.83 1464.32 195.342 1459.69 214.513Z" fill="#FEFEFE"/>
    <path d="M1353.05 156.116L1392.78 156.19C1392.25 203.512 1391.71 255.998 1392.79 303.123C1389.08 304.524 1358.9 303.905 1353.08 303.838L1353.05 156.116Z" fill="#FEFEFE"/>
    <path d="M1368.27 94.4559C1379.77 91.7899 1391.3 98.8369 1394.17 110.297C1397.04 121.758 1390.2 133.405 1378.79 136.479C1371.23 138.517 1363.16 136.314 1357.68 130.719C1352.2 125.124 1350.16 117.007 1352.36 109.489C1354.55 101.971 1360.64 96.2239 1368.27 94.4559Z" fill="#FEFEFE"/>
    <path d="M1636.55 239.936C1641.33 240.638 1642.58 239.678 1646.8 237.213C1645.1 244.414 1643.67 250.22 1641.37 257.239C1639.56 251.294 1638.03 245.973 1636.55 239.936Z" fill="#101116" fill-opacity="0.0431373"/>
  </g>

  <text x="500" y="272" text-anchor="middle" font-family="Segoe UI, Helvetica, Arial, sans-serif" font-size="21" fill="#a1a1ac">O explorador de CSV para quem vive nos dados</text>

  <g transform="translate(500,308)">
    <circle cx="-158" cy="0" r="4" fill="#3ecf8e"/>
    <text x="-148" y="4.5" text-anchor="start" font-family="Segoe UI, Helvetica, Arial, sans-serif" font-size="14" fill="#9a9aa6">100% no navegador &#183; seus dados n&#227;o saem daqui</text>
  </g>

  <defs>
    <linearGradient id="paint0_linear_157_2" x1="58.9555" y1="365.114" x2="353.4" y2="40.8854" gradientUnits="userSpaceOnUse">
      <stop stop-color="#4A48CA"/>
      <stop offset="1" stop-color="#8A79FD"/>
    </linearGradient>
    <radialGradient id="glow" cx="0" cy="0" r="1" gradientUnits="userSpaceOnUse" gradientTransform="translate(500 150) rotate(90) scale(260)">
      <stop stop-color="#6e62f7" stop-opacity="0.16"/>
      <stop offset="1" stop-color="#6e62f7" stop-opacity="0"/>
    </radialGradient>
  </defs>
</svg>
