<svg width="390" height="406" viewBox="0 0 390 406" fill="none" xmlns="http://www.w3.org/2000/svg">
<path d="M111.907 18.8074C170.224 16.2371 231.447 20.8059 289.987 18.8027C343.389 16.9753 388.501 54.0767 390.43 108.554C391.574 140.835 391.758 176.992 390.853 209.381C390.015 239.418 394.311 286.966 388.448 314.919C385.161 330.491 377.915 344.953 367.409 356.907C350.16 376.531 327.954 386.294 302.148 387.917C245.45 389.783 187.273 386.986 130.454 388.169C102.238 388.757 79.1233 385.432 56.5913 367.113C37.6033 351.616 25.5763 329.19 23.1713 304.8C21.1073 284.319 22.4093 239.835 22.3623 217.284L22.2263 147.104C22.2293 131.362 21.6663 110.275 24.4923 95.2167C27.3893 79.6877 34.0993 65.1227 44.0193 52.8297C61.8043 31.1578 84.5633 21.4675 111.907 18.8074Z" fill="url(#paint0_linear_157_2)"/>
<path d="M143.402 115.608C161.128 114.112 187.273 115.501 205.308 115.205C217.517 115.004 266.997 113.716 275.667 117.825C283.8 121.597 290.093 128.458 293.149 136.887C296.894 147.485 294.639 242.501 294.72 260.467C294.734 263.667 293.464 270.412 291.849 273.504C286.983 282.814 280.144 287.474 270.515 290.825C255.599 293.234 237.59 291.449 222.345 291.473C198.93 291.51 174.549 292.903 151.232 291.21C146.175 290.843 140.353 290.166 135.794 287.895C128.658 284.339 122.864 276.987 120.321 269.535C116.763 259.111 117.42 162.354 118.753 146.511C119.146 141.836 119.793 137.312 121.916 133.062C126.447 123.992 133.982 118.772 143.402 115.608Z" fill="#FEFEFE"/>
<path d="M189.325 183.865L279.29 183.88C279.163 208.867 280.522 238.686 278.688 263.66C278.541 265.673 276.072 269.467 274.889 271.235C265.965 278.655 244.98 276.286 233.501 276.199L189.167 276.171C188.996 245.402 189.048 214.633 189.325 183.865Z" fill="#6D61E4"/>
<path d="M146.166 130.528C181.61 129.169 218.337 131.276 253.864 130.361C283.298 129.603 279.727 145.215 279.241 168.286L269.448 168.379L134.019 168.439C133.806 152.089 130.024 139.022 146.166 130.528Z" fill="#6D61E4"/>
<path d="M134.185 183.885L173.527 183.828C174.441 213.468 173.797 246.225 173.821 276.099C131.869 275.48 133.747 276.398 133.884 232.492L134.185 183.885Z" fill="#6D61E4"/>
<defs>
<linearGradient id="paint0_linear_157_2" x1="58.9555" y1="365.114" x2="353.4" y2="40.8854" gradientUnits="userSpaceOnUse">
<stop stop-color="#4A48CA"/>
<stop offset="1" stop-color="#8A79FD"/>
</linearGradient>
</defs>
</svg>
