<?xml version="1.0" encoding="utf-8" ?><svg xmlns="http://www.w3.org/2000/svg" xmlns:xlink="http://www.w3.org/1999/xlink" width="2064" height="512" viewBox="0 0 2064 512"><defs><linearGradient id="gradient_0" gradientUnits="userSpaceOnUse" x1="203.75725" y1="417.68768" x2="498.20166" y2="93.458717"><stop offset="0" stop-color="#4A48CA"/><stop offset="1" stop-color="#8A79FD"/></linearGradient></defs><path fill="url(#gradient_0)" d="M256.709 71.3807C315.026 68.8104 376.249 73.3792 434.789 71.376C488.191 69.5486 533.303 106.65 535.232 161.127C536.376 193.408 536.56 229.565 535.655 261.954C534.817 291.991 539.113 339.539 533.25 367.492C529.963 383.064 522.717 397.526 512.211 409.48C494.962 429.104 472.756 438.867 446.95 440.49C390.252 442.356 332.075 439.559 275.256 440.742C247.04 441.33 223.925 438.005 201.393 419.686C182.405 404.189 170.378 381.763 167.973 357.373C165.909 336.892 167.211 292.408 167.164 269.857L167.028 199.677C167.031 183.935 166.468 162.848 169.294 147.79C172.191 132.261 178.901 117.696 188.821 105.403C206.606 83.7311 229.365 74.0408 256.709 71.3807Z"/><path fill="#FEFEFE" d="M288.204 168.181C305.93 166.685 332.075 168.074 350.11 167.778C362.319 167.577 411.799 166.289 420.469 170.398C428.602 174.17 434.895 181.031 437.951 189.46C441.696 200.058 439.441 295.074 439.522 313.04C439.536 316.24 438.266 322.985 436.651 326.077C431.785 335.387 424.946 340.047 415.317 343.398C400.401 345.807 382.392 344.022 367.147 344.046C343.732 344.083 319.351 345.476 296.034 343.783C290.977 343.416 285.155 342.739 280.596 340.468C273.46 336.912 267.666 329.56 265.123 322.108C261.565 311.684 262.222 214.927 263.555 199.084C263.948 194.409 264.595 189.885 266.718 185.635C271.249 176.565 278.784 171.345 288.204 168.181Z"/><path fill="#6D61E4" d="M334.127 236.438L424.092 236.453C423.965 261.44 425.324 291.259 423.49 316.233C423.343 318.246 420.874 322.04 419.691 323.808C410.767 331.228 389.782 328.859 378.303 328.772L333.969 328.744C333.798 297.975 333.85 267.206 334.127 236.438Z"/><path fill="#6D61E4" d="M290.968 183.101C326.412 181.742 363.139 183.849 398.666 182.934C428.1 182.176 424.529 197.788 424.043 220.859L414.25 220.952L278.821 221.012C278.608 204.662 274.826 191.595 290.968 183.101Z"/><path fill="#6D61E4" d="M278.987 236.458L318.329 236.401C319.243 266.041 318.599 298.798 318.623 328.672C276.671 328.053 278.549 328.971 278.686 285.065L278.987 236.458Z"/><path fill="#FEFEFE" d="M1813.56 208.739L1852.22 208.731C1860.92 242.728 1870.12 276.594 1879.83 310.317L1904.69 208.751L1944.59 208.75L1918.21 301.429C1914.28 315.44 1907.05 343.624 1902.13 356.375L1860.8 356.439C1851.68 323.544 1842.4 290.696 1832.94 257.898C1823.56 283.981 1812.45 329.026 1804.83 356.366L1763.11 356.551C1754 323.372 1744.65 290.26 1735.06 257.217C1730.84 242.532 1725.83 222.766 1721.11 208.766L1761.21 208.752L1774.78 265.082C1776.64 272.778 1780.12 285.24 1781.35 292.509C1782.83 298.546 1784.36 303.867 1786.17 309.812C1788.47 302.793 1789.9 296.987 1791.6 289.786C1797.86 271.974 1809.13 227.903 1813.56 208.739Z"/><path fill="#FEFEFE" d="M930.723 154.241C975.862 150.241 1012.8 164.205 1019.14 213.782C1006.45 213.917 993.534 213.793 980.822 213.795C978.632 205.698 976.93 200.8 970.335 195.226C956.725 183.723 928.192 182.737 916.195 197.049C912.819 201.077 909.757 208.613 910.984 213.944C916.315 235.637 953.696 239.284 975.157 244.623C1018.3 255.358 1034.67 296.983 1009.61 333.781C997.699 351.26 972.76 356.894 950.984 358.887C904.949 359.357 869.379 344.526 864.671 294.025L904.385 293.971C904.561 295.334 904.762 296.693 904.99 298.048C906.31 306.226 910.859 313.532 917.617 318.325C931.586 328.153 968.762 328.619 977.549 311.696C995.323 277.626 941.854 271.813 919.051 266.114C877.2 255.654 855.957 220.483 879.67 181.508C889.534 165.294 912.076 157.327 930.723 154.241Z"/><path fill="#FEFEFE" d="M745.515 154.258C796.982 150.386 835.991 171.791 842.926 225.925L802.438 225.939C800.13 216.241 793.939 201.419 785.728 197.152C726.704 166.474 698.379 227.633 708.318 276.176C715.348 310.511 735.32 326.144 768.512 321.955C780.871 320.395 790.418 311.924 797.041 302.173C799.406 297.652 800.996 292.394 802.627 287.533L842.612 287.667C833.19 355.167 756.42 378.524 703.858 342.195C658.522 310.86 654.864 230.685 685.688 188.516C700.295 168.533 721.2 157.91 745.515 154.258Z"/><path fill="#FEFEFE" d="M1292.29 156.773L1335.8 156.736C1352.04 207.783 1367.6 261.293 1384.98 311.692C1401.99 264.289 1418.84 205.566 1433.74 156.786L1476.87 156.78C1472.79 167.549 1468.74 181.006 1465.12 192.127L1409.74 356.327L1359.78 356.429C1356.07 341.3 1342.87 305.649 1337.48 289.695L1292.29 156.773Z"/><path fill="#FEFEFE" d="M1035.7 156.82L1079.08 156.793C1080.7 163.268 1082.61 169.679 1084.7 176.018C1099.56 221.103 1112.33 267.199 1127.89 312.014C1133.44 296.954 1139.51 275.628 1144.47 259.872L1176.5 156.849L1219.24 156.801C1215.67 165.318 1211.19 180.867 1208.13 190.258C1189.97 244.939 1171.58 302.238 1152.21 356.311L1102.99 356.277L1035.7 156.82Z"/><path fill="#FEFEFE" d="M1637.4 206.444L1637.93 206.448C1691.68 207.193 1708.57 243.395 1707.8 291.807L1604.05 291.899C1604.55 295.778 1605.17 300.823 1606.27 304.501C1608.91 313.29 1614.93 320.673 1623.01 325.031C1641.28 334.785 1661.51 329.019 1671.19 310.56L1701.89 314.301C1704.01 314.549 1704.62 314.528 1706.27 315.843C1706.98 321.064 1698.27 333.691 1694.76 337.704C1681.89 352.247 1665.39 357.268 1646.85 358.708C1602.91 362.62 1567.69 335.441 1565.86 290.164C1563.87 241.036 1587.6 209.142 1637.4 206.444ZM1604.49 267.086L1640.8 267.07L1670.72 267.136C1666.24 247.168 1658.88 234.332 1635.77 235.28C1615.6 238.403 1609.12 247.915 1604.49 267.086Z"/><path fill="#FEFEFE" d="M1497.85 208.689L1537.58 208.763C1537.05 256.085 1536.51 308.571 1537.59 355.696C1533.88 357.097 1503.7 356.478 1497.88 356.411L1497.85 208.689Z"/><path fill="#FEFEFE" d="M1513.07 147.029C1524.57 144.363 1536.1 151.41 1538.97 162.87C1541.84 174.331 1535 185.978 1523.59 189.052C1516.03 191.09 1507.96 188.887 1502.48 183.292C1497 177.697 1494.96 169.58 1497.16 162.062C1499.35 154.544 1505.44 148.797 1513.07 147.029Z"/><path fill="#101116" fill-opacity="0.043137256" d="M1781.35 292.509C1786.13 293.211 1787.38 292.251 1791.6 289.786C1789.9 296.987 1788.47 302.793 1786.17 309.812C1784.36 303.867 1782.83 298.546 1781.35 292.509Z"/></svg>